<svg width="209" height="209" viewBox="0 0 209 209" fill="none" xmlns="http://www.w3.org/2000/svg">
<path d="M205.927 74.106V71.8438C205.927 67.6066 202.48 64.1598 198.243 64.1598C194.112 64.1598 190.741 67.4385 190.575 71.5295L96.3041 55.7079H92.2061V45.7188C92.2061 40.6342 88.0698 36.4983 82.9857 36.4983C77.9015 36.4983 73.7647 40.6342 73.7647 45.7188V55.7079H27.6619V45.7188C27.6619 40.6342 23.5256 36.4983 18.4414 36.4983C13.3568 36.4983 9.2209 40.6346 9.2209 45.7188V55.7079H0V172.502H96.2723L209 155.948V74.622L205.927 74.106ZM196.706 71.8438C196.706 70.9964 197.395 70.3069 198.243 70.3069C199.09 70.3069 199.779 70.9964 199.779 71.8438V73.0741L196.706 72.5581V71.8438H196.706ZM79.9119 45.7188C79.9119 44.0239 81.2904 42.6454 82.9853 42.6454C84.6801 42.6454 86.0586 44.0239 86.0586 45.7188V55.7079H79.9115V45.7188H79.9119ZM15.3676 45.7188C15.3676 44.0239 16.7461 42.6454 18.441 42.6454C20.1358 42.6454 21.5143 44.0239 21.5143 45.7188V55.7079H15.3676V45.7188ZM27.6619 166.355H6.14713V61.8546H27.6619V68.0018H12.2943V160.208H27.6619V166.355ZM64.5443 154.061H58.3971V132.546H52.25V160.208H64.5443V166.355H33.809V160.208H46.1033V132.546H39.9557V154.061H33.809V147.914H27.6619V154.061H18.441V74.1489H27.6615V80.296H33.8086V74.1489H39.9557V98.737H46.1029V68.0018H33.809V61.8546H64.5443V68.0018H52.25V98.737H58.3971V74.1489H64.5443V80.296H70.6914V74.1489H79.9119V154.061H70.6914V147.914H64.5443V154.061ZM202.853 150.637L98.3529 165.983V150.987H92.2057V166.355H70.691V160.208H86.0586V68.0014H70.691V61.8542H92.2057V132.545H98.3529V62.2845L202.853 79.8229V150.637Z" fill="#B2B74A"/>
<path d="M98.3529 138.694H92.2057V144.841H98.3529V138.694Z" fill="#B2B74A"/>
<path d="M33.809 86.4438H27.6619V92.591H33.809V86.4438Z" fill="#B2B74A"/>
<path d="M70.691 104.884V98.7371H64.5438V104.884H33.809V98.7371H27.6619V104.884H24.5885V123.325H27.6619V129.472H33.809V123.325H64.5442V129.472H70.6914V123.325H73.7647V104.884H70.691ZM67.6176 117.178H30.7352V111.031H67.6176V117.178Z" fill="#B2B74A"/>
<path d="M33.809 135.62H27.6619V141.767H33.809V135.62Z" fill="#B2B74A"/>
<path d="M70.6914 86.4438H64.5443V92.591H70.6914V86.4438Z" fill="#B2B74A"/>
<path d="M70.6914 135.62H64.5443V141.767H70.6914V135.62Z" fill="#B2B74A"/>
<path d="M116.794 74.1497H110.647V154.062H116.794V74.1497Z" fill="#B2B74A"/>
<path d="M132.162 77.2234H126.015V150.988H132.162V77.2234Z" fill="#B2B74A"/>
<path d="M147.529 80.2969H141.382V147.914H147.529V80.2969Z" fill="#B2B74A"/>
<path d="M162.897 83.3701H156.75V144.841H162.897V83.3701Z" fill="#B2B74A"/>
<path d="M178.265 86.4438H172.118V141.767H178.265V86.4438Z" fill="#B2B74A"/>
<path d="M193.632 89.5173H187.485V138.694H193.632V89.5173Z" fill="#B2B74A"/>
</svg>
