<svg width="163" height="163" viewBox="0 0 163 163" fill="none" xmlns="http://www.w3.org/2000/svg">
<g clip-path="url(#clip0_3_61)">
<path d="M160.612 145.362H140.826C142.02 144.493 143.164 143.52 144.24 142.444C148.339 138.346 150.999 133.263 151.732 128.133C152.501 122.748 151.082 117.939 147.734 114.591C144.804 111.664 140.636 110.185 136.007 110.423C134.69 110.49 133.678 111.613 133.746 112.93C133.814 114.247 134.946 115.264 136.253 115.192C138.567 115.071 141.845 115.458 144.359 117.969C146.617 120.226 147.556 123.596 147.005 127.457C146.417 131.572 144.236 135.695 140.863 139.068C137.49 142.44 133.367 144.621 129.253 145.209C128.504 145.316 127.787 145.365 127.071 145.362C124.13 145.346 121.586 144.384 119.765 142.563C117.508 140.306 116.569 136.937 117.12 133.078C117.708 128.963 119.889 124.84 123.265 121.466C124.414 120.314 125.67 119.289 126.998 118.417C128.101 117.693 128.408 116.213 127.684 115.11C126.961 114.008 125.481 113.701 124.378 114.424C122.776 115.476 121.264 116.71 119.887 118.091C119.057 118.921 118.288 119.793 117.58 120.696C116.908 118.363 115.709 116.29 114.013 114.593C107.298 107.879 94.8042 109.447 86.1621 118.09C85.3308 118.921 84.5668 119.788 83.8676 120.682C83.2118 118.384 82.0425 116.301 80.3345 114.593C76.9882 111.247 72.18 109.829 66.7953 110.597C61.6646 111.33 56.582 113.991 52.4835 118.09C51.6449 118.928 50.87 119.81 50.1559 120.723C49.5023 118.409 48.3305 116.311 46.6126 114.592C41.1769 109.157 31.671 109.023 23.4952 114.267C22.3854 114.98 22.0629 116.456 22.7748 117.567C23.487 118.676 24.9632 118.999 26.0736 118.287C32.3431 114.265 39.4002 114.134 43.2351 117.968C48.0875 122.824 46.5184 132.288 39.7367 139.068C36.364 142.44 32.2412 144.621 28.1277 145.209C27.3802 145.316 26.6645 145.365 25.9504 145.362C23.0085 145.347 20.4625 144.385 18.6406 142.563C14.8031 138.728 14.9342 131.672 18.9589 125.402C19.6711 124.293 19.3492 122.816 18.2394 122.103C17.1306 121.391 15.6531 121.713 14.9403 122.823C9.87296 130.716 9.82393 139.85 14.7216 145.362H2.3877C1.06873 145.362 0 146.431 0 147.75V160.612C0 161.931 1.06873 163 2.3877 163H160.612C161.931 163 163 161.931 163 160.612V147.75C163 146.431 161.931 145.362 160.612 145.362ZM89.5389 121.467C93.6588 117.347 98.7697 115.151 103.235 115.151C106.118 115.151 108.732 116.067 110.636 117.971C112.893 120.228 113.833 123.597 113.282 127.457C112.693 131.572 110.513 135.695 107.14 139.068C103.767 142.441 99.6439 144.622 95.5295 145.209C94.782 145.316 94.066 145.365 93.3519 145.362C90.4096 145.347 87.864 144.385 86.0424 142.564C81.1899 137.711 82.7585 128.247 89.5389 121.467ZM55.8603 121.467C59.2327 118.094 63.3561 115.913 67.4705 115.325C68.1926 115.222 68.8968 115.171 69.5806 115.171C72.5519 115.171 75.1223 116.135 76.9576 117.97C81.8101 122.823 80.2415 132.287 73.4614 139.068C69.5517 142.977 64.7508 145.15 60.4552 145.362H59.0894C56.4754 145.229 54.1179 144.318 52.3641 142.564C50.1066 140.307 49.1671 136.938 49.7185 133.077C50.3065 128.963 52.4873 124.839 55.8603 121.467ZM158.225 158.225H4.77539V150.137H158.225V158.225Z" fill="#B2B74A"/>
<path d="M92.1393 137.981C92.7502 137.981 93.3614 137.748 93.8278 137.282C94.0755 137.034 94.1335 137.02 94.5843 136.909C95.3034 136.733 96.39 136.467 97.5823 135.275C98.7748 134.083 99.041 132.996 99.2174 132.276C99.3278 131.825 99.3418 131.767 99.5905 131.519C99.8382 131.271 99.8961 131.257 100.347 131.147C101.066 130.971 102.153 130.705 103.346 129.512C104.538 128.32 104.804 127.233 104.981 126.514C105.091 126.062 105.106 126.004 105.354 125.756C106.287 124.823 106.287 123.311 105.354 122.379C104.422 121.446 102.91 121.447 101.978 122.379C100.785 123.571 100.519 124.658 100.342 125.377C100.232 125.829 100.218 125.887 99.9687 126.136C99.7207 126.384 99.6627 126.398 99.2119 126.508C98.4928 126.684 97.4062 126.95 96.2139 128.142C95.0214 129.335 94.7552 130.422 94.5789 131.141C94.4684 131.592 94.4544 131.65 94.2057 131.898C93.9581 132.146 93.9001 132.16 93.4493 132.271C92.7301 132.447 91.6436 132.713 90.451 133.905C89.5185 134.837 89.5185 136.349 90.451 137.281C90.9171 137.748 91.5283 137.981 92.1393 137.981Z" fill="#B2B74A"/>
<path d="M127.172 132.271C126.453 132.447 125.366 132.712 124.174 133.905C123.241 134.837 123.241 136.349 124.174 137.281C124.64 137.747 125.251 137.981 125.862 137.981C126.473 137.981 127.085 137.748 127.551 137.281C127.799 137.033 127.857 137.019 128.307 136.909C129.027 136.733 130.113 136.467 131.305 135.275C132.498 134.082 132.764 132.995 132.941 132.276C133.051 131.825 133.065 131.767 133.314 131.519C133.561 131.271 133.619 131.257 134.07 131.146C134.79 130.97 135.876 130.704 137.069 129.512C138.261 128.319 138.527 127.232 138.704 126.513C138.815 126.062 138.829 126.004 139.078 125.755C140.01 124.823 140.01 123.311 139.077 122.378C138.145 121.446 136.633 121.446 135.701 122.378C134.508 123.571 134.242 124.658 134.066 125.377C133.955 125.828 133.941 125.886 133.692 126.135C133.444 126.383 133.386 126.397 132.935 126.508C132.216 126.684 131.129 126.95 129.937 128.142C128.745 129.334 128.478 130.421 128.302 131.14C128.192 131.592 128.178 131.649 127.929 131.898C127.681 132.146 127.623 132.16 127.172 132.271Z" fill="#B2B74A"/>
<path d="M26.426 137.282C26.6737 137.034 26.7317 137.02 27.1825 136.909C27.9016 136.733 28.9882 136.467 30.1805 135.275C31.373 134.083 31.6392 132.996 31.8155 132.276C31.926 131.825 31.94 131.767 32.1887 131.519C32.4364 131.271 32.4943 131.257 32.9451 131.147C33.6643 130.971 34.7508 130.705 35.9431 129.512C37.136 128.32 37.4021 127.233 37.5785 126.514C37.6893 126.062 37.7036 126.004 37.9522 125.756C38.885 124.823 38.885 123.311 37.9526 122.379C37.0201 121.447 35.5082 121.446 34.576 122.379C33.3832 123.572 33.117 124.658 32.9406 125.377C32.8298 125.829 32.8155 125.887 32.5666 126.136C32.3186 126.384 32.2606 126.398 31.8101 126.508C31.091 126.684 30.0044 126.95 28.8121 128.142C27.6196 129.335 27.3534 130.422 27.1771 131.141C27.0666 131.592 27.0526 131.65 26.8039 131.898C26.5563 132.146 26.4983 132.16 26.0475 132.271C25.3283 132.447 24.2418 132.713 23.0492 133.905C22.1167 134.837 22.1167 136.349 23.0492 137.281C23.5156 137.747 24.1269 137.981 24.7378 137.981C25.3487 137.981 25.9597 137.748 26.426 137.282Z" fill="#B2B74A"/>
<path d="M58.4606 137.981C59.0716 137.981 59.6828 137.748 60.1492 137.282C60.3969 137.034 60.4548 137.02 60.9056 136.909C61.6248 136.733 62.7114 136.467 63.9036 135.275C65.0962 134.083 65.3624 132.996 65.5387 132.276C65.6492 131.825 65.6632 131.767 65.9118 131.519C66.1595 131.271 66.2175 131.257 66.6683 131.147C67.3874 130.971 68.474 130.705 69.6663 129.512C70.8592 128.32 71.1253 127.233 71.3017 126.514C71.4125 126.062 71.4268 126.004 71.6754 125.756C72.6082 124.823 72.6082 123.311 71.6757 122.379C70.743 121.447 69.2311 121.446 68.2992 122.379C67.1063 123.572 66.8402 124.658 66.6638 125.377C66.553 125.829 66.5387 125.887 66.2897 126.136C66.0417 126.384 65.9838 126.398 65.5333 126.508C64.8141 126.684 63.7276 126.95 62.5353 128.142C61.3427 129.335 61.0766 130.422 60.9002 131.141C60.7898 131.592 60.7758 131.65 60.5271 131.898C60.2794 132.146 60.2215 132.16 59.7707 132.271C59.0515 132.447 57.965 132.713 56.7724 133.905C55.8399 134.837 55.8399 136.349 56.7724 137.281C57.2385 137.748 57.8497 137.981 58.4606 137.981Z" fill="#B2B74A"/>
<path d="M70.3778 23.8673C69.2728 23.1491 67.7937 23.4633 67.0751 24.5696C65.2713 27.3473 64.3181 30.5755 64.3181 33.9055C64.3181 43.3776 72.0259 51.0842 81.5 51.0842C90.9741 51.0842 98.6819 43.3776 98.6819 33.9055C98.6819 24.4314 90.9741 16.7236 81.5 16.7236C80.1269 16.7236 78.7564 16.8879 77.4266 17.212C76.1455 17.524 75.3598 18.8159 75.6718 20.097C75.9841 21.378 77.276 22.165 78.5568 21.8514C79.5169 21.6178 80.507 21.499 81.4997 21.499C88.3406 21.499 93.9061 27.0646 93.9061 33.9055C93.9061 40.7445 88.3409 46.3088 81.4997 46.3088C74.6585 46.3088 69.0932 40.7445 69.0932 33.9055C69.0932 31.5009 69.7802 29.1718 71.0798 27.1703C71.7983 26.064 71.4841 24.5852 70.3778 23.8673Z" fill="#B2B74A"/>
<path d="M81.5 11.2072C82.819 11.2072 83.8877 10.1382 83.8877 8.81951V2.3877C83.8877 1.06905 82.819 0 81.5 0C80.181 0 79.1123 1.06905 79.1123 2.3877V8.81951C79.1123 10.1382 80.181 11.2072 81.5 11.2072Z" fill="#B2B74A"/>
<path d="M66.8899 13.374C67.3324 14.1399 68.1347 14.5681 68.9598 14.5681C69.3648 14.5681 69.7755 14.465 70.1515 14.2479C71.2934 13.5885 71.6847 12.1282 71.0254 10.9863L67.8093 5.41624C67.15 4.27429 65.689 3.88271 64.5477 4.54235C63.4057 5.20167 63.0145 6.66198 63.6738 7.80394L66.8899 13.374Z" fill="#B2B74A"/>
<path d="M53.0122 20.2136L58.5826 23.4297C58.9589 23.6468 59.3692 23.75 59.7742 23.75C60.5994 23.75 61.402 23.3214 61.8442 22.5558C62.5035 21.4138 62.1122 19.9535 60.9703 19.2942L55.3999 16.0781C54.257 15.4182 52.7974 15.8101 52.1384 16.952C51.4787 18.094 51.8703 19.5543 53.0122 20.2136Z" fill="#B2B74A"/>
<path d="M49.9837 36.2917H56.4155C57.7345 36.2917 58.8032 35.2227 58.8032 33.9041C58.8032 32.5854 57.7345 31.5164 56.4155 31.5164H49.9837C48.6647 31.5164 47.596 32.5854 47.596 33.9041C47.596 35.2227 48.6647 36.2917 49.9837 36.2917Z" fill="#B2B74A"/>
<path d="M61.8442 45.2522C61.1848 44.11 59.7239 43.7187 58.5826 44.3784L53.0122 47.5944C51.8703 48.2537 51.479 49.7141 52.1383 50.856C52.5809 51.622 53.3831 52.0502 54.2083 52.0502C54.6133 52.0502 55.0239 51.947 55.3999 51.7299L60.9703 48.5138C62.1122 47.8545 62.5035 46.3942 61.8442 45.2522Z" fill="#B2B74A"/>
<path d="M64.548 63.2657C64.9243 63.4829 65.3347 63.586 65.7396 63.586C66.5648 63.586 67.3674 63.1575 67.8096 62.3919L71.0257 56.8215C71.685 55.6796 71.2937 54.2192 70.1518 53.5599C69.0089 52.9003 67.5489 53.2919 66.8902 54.4338L63.6741 60.0042C63.0148 61.1461 63.406 62.6064 64.548 63.2657Z" fill="#B2B74A"/>
<path d="M81.5 67.808C82.819 67.808 83.8877 66.739 83.8877 65.4203V58.9885C83.8877 57.6699 82.819 56.6008 81.5 56.6008C80.181 56.6008 79.1123 57.6699 79.1123 58.9885V65.4203C79.1123 66.739 80.181 67.808 81.5 67.808Z" fill="#B2B74A"/>
<path d="M96.1101 54.4337C95.4511 53.2917 93.9899 52.9005 92.8485 53.5598C91.7066 54.2191 91.3153 55.6794 91.9746 56.8214L95.1907 62.3917C95.6329 63.1577 96.4355 63.5859 97.2607 63.5859C97.6656 63.5859 98.0763 63.4827 98.4523 63.2656C99.5942 62.6063 99.9855 61.146 99.3262 60.004L96.1101 54.4337Z" fill="#B2B74A"/>
<path d="M102.03 48.5138L107.6 51.7298C107.976 51.947 108.387 52.0501 108.792 52.0501C109.617 52.0501 110.419 51.6219 110.862 50.8559C111.521 49.714 111.13 48.2537 109.988 47.5943L104.417 44.3783C103.274 43.7186 101.815 44.1102 101.156 45.2522C100.496 46.3941 100.888 47.8544 102.03 48.5138Z" fill="#B2B74A"/>
<path d="M104.197 33.9041C104.197 35.2227 105.266 36.2917 106.585 36.2917H113.016C114.335 36.2917 115.404 35.2227 115.404 33.9041C115.404 32.5854 114.335 31.5164 113.016 31.5164H106.585C105.266 31.5164 104.197 32.5854 104.197 33.9041Z" fill="#B2B74A"/>
<path d="M103.226 23.7499C103.631 23.7499 104.041 23.6467 104.417 23.4296L109.988 20.2135C111.13 19.5542 111.521 18.0939 110.862 16.952C110.202 15.8097 108.741 15.4184 107.6 16.0781L102.03 19.2941C100.888 19.9534 100.496 21.4138 101.156 22.5557C101.598 23.3217 102.401 23.7499 103.226 23.7499Z" fill="#B2B74A"/>
<path d="M92.8483 14.2479C93.2246 14.465 93.6349 14.5682 94.0399 14.5682C94.8651 14.5682 95.6676 14.14 96.1099 13.374L99.3259 7.80401C99.9853 6.66205 99.594 5.20174 98.452 4.54242C97.3091 3.88278 95.8494 4.27404 95.1904 5.41631L91.9744 10.9863C91.315 12.1283 91.7066 13.5886 92.8483 14.2479Z" fill="#B2B74A"/>
<path d="M111.223 77.3193C111.223 76.0007 110.155 74.9316 108.836 74.9316C107.517 74.9316 106.448 76.0007 106.448 77.3193C106.448 77.7125 106.402 77.7873 106.151 78.2025C105.757 78.8522 105.161 79.8337 105.161 81.5618C105.161 83.2898 105.757 84.2717 106.151 84.9214C106.402 85.3366 106.448 85.4114 106.448 85.8046C106.448 86.1965 106.402 86.2713 106.151 86.6858C105.757 87.3352 105.161 88.3167 105.161 90.0445C105.161 91.7725 105.757 92.754 106.151 93.4035C106.402 93.8183 106.448 93.8931 106.448 94.2857C106.448 94.6776 106.402 94.7524 106.151 95.1669C105.757 95.8163 105.161 96.7978 105.161 98.5256C105.161 99.8442 106.23 100.913 107.549 100.913C108.868 100.913 109.937 99.8442 109.937 98.5256C109.937 98.1337 109.982 98.0588 110.234 97.6443C110.628 96.9949 111.223 96.0134 111.223 94.2857C111.223 92.5576 110.628 91.5761 110.234 90.9266C109.982 90.5118 109.937 90.437 109.937 90.0445C109.937 89.6522 109.982 89.5778 110.234 89.1633C110.628 88.5138 111.223 87.5323 111.223 85.8046C111.223 84.0765 110.628 83.0947 110.234 82.4452C109.982 82.0301 109.937 81.9553 109.937 81.5621C109.937 81.1689 109.982 81.0941 110.234 80.679C110.628 80.0292 111.223 79.0474 111.223 77.3193Z" fill="#B2B74A"/>
<path d="M84.2093 77.3193C84.2093 76.0007 83.1405 74.9316 81.8216 74.9316C80.5026 74.9316 79.4339 76.0007 79.4339 77.3193C79.4339 77.7128 79.3884 77.7876 79.1365 78.2028C78.7427 78.8522 78.1477 79.8341 78.1477 81.5618C78.1477 83.2895 78.743 84.2717 79.1365 84.9211C79.3884 85.3363 79.4339 85.4111 79.4339 85.8042C79.4339 86.1965 79.3884 86.2713 79.1372 86.6858C78.743 87.3352 78.1477 88.3167 78.1477 90.0442C78.1477 91.7719 78.743 92.7534 79.1368 93.4028C79.3883 93.8177 79.4339 93.8925 79.4339 94.285C79.4339 94.6772 79.3884 94.7521 79.1372 95.1662C78.743 95.8157 78.1477 96.7972 78.1477 98.5246C78.1477 99.8433 79.2164 100.912 80.5354 100.912C81.8544 100.912 82.9231 99.8433 82.9231 98.5246C82.9231 98.1324 82.9686 98.0576 83.2198 97.6434C83.6139 96.9939 84.2093 96.0124 84.2093 94.285C84.2093 92.5573 83.6139 91.5758 83.2201 90.9263C82.9686 90.5115 82.9231 90.4367 82.9231 90.0442C82.9231 89.6519 82.9686 89.5771 83.2201 89.1626C83.6139 88.5132 84.2093 87.532 84.2093 85.8042C84.2093 84.0762 83.6142 83.0947 83.2204 82.4452C82.9686 82.0298 82.9231 81.955 82.9231 81.5618C82.9231 81.1686 82.9686 81.0938 83.2204 80.6787C83.6139 80.0289 84.2093 79.0471 84.2093 77.3193Z" fill="#B2B74A"/>
<path d="M57.1952 77.3193C57.1952 76.0007 56.1264 74.9316 54.8075 74.9316C53.4885 74.9316 52.4198 76.0007 52.4198 77.3193C52.4198 77.7128 52.3743 77.7876 52.1224 78.2028C51.7286 78.8522 51.1336 79.8341 51.1336 81.5618C51.1336 83.2895 51.7289 84.2717 52.1224 84.9211C52.3743 85.3363 52.4198 85.4111 52.4198 85.8042C52.4198 86.1965 52.3743 86.2713 52.1231 86.6858C51.7289 87.3352 51.1336 88.3167 51.1336 90.0442C51.1336 91.7719 51.7289 92.7534 52.1228 93.4028C52.3743 93.8177 52.4198 93.8925 52.4198 94.285C52.4198 94.6772 52.3743 94.7521 52.1231 95.1662C51.7289 95.8157 51.1336 96.7972 51.1336 98.5246C51.1336 99.8433 52.2023 100.912 53.5213 100.912C54.8403 100.912 55.909 99.8433 55.909 98.5246C55.909 98.1324 55.9545 98.0576 56.2057 97.6434C56.5998 96.9939 57.1952 96.0124 57.1952 94.285C57.1952 92.5573 56.5998 91.5758 56.206 90.9263C55.9545 90.5115 55.909 90.4367 55.909 90.0442C55.909 89.6519 55.9545 89.5771 56.206 89.1626C56.5998 88.5132 57.1952 87.532 57.1952 85.8042C57.1952 84.0762 56.6002 83.0947 56.2063 82.4452C55.9545 82.0298 55.909 81.955 55.909 81.5618C55.909 81.1686 55.9545 81.0938 56.2063 80.6787C56.5998 80.0289 57.1952 79.0471 57.1952 77.3193Z" fill="#B2B74A"/>
</g>
<defs>
<clipPath id="clip0_3_61">
<rect width="163" height="163" fill="white"/>
</clipPath>
</defs>
</svg>
