<svg width="15" height="19" viewBox="0 0 15 19" fill="none" xmlns="http://www.w3.org/2000/svg">
<path d="M7.49998 0C3.70573 0 0.618896 3.08683 0.618896 6.88104C0.618896 11.5898 6.77679 18.5025 7.03897 18.7945C7.28523 19.0687 7.71517 19.0682 7.96099 18.7945C8.22317 18.5025 14.3811 11.5898 14.3811 6.88104C14.381 3.08683 11.2942 0 7.49998 0ZM7.49998 10.3431C5.591 10.3431 4.03797 8.79002 4.03797 6.88104C4.03797 4.97206 5.59103 3.41904 7.49998 3.41904C9.40892 3.41904 10.9619 4.9721 10.9619 6.88108C10.9619 8.79006 9.40892 10.3431 7.49998 10.3431Z" fill="#B2B74A"/>
</svg>
