<svg width="15" height="15" viewBox="0 0 15 15" fill="none" xmlns="http://www.w3.org/2000/svg">
<g clip-path="url(#clip0_5_81)">
<path d="M6.21132 8.78873C4.77959 7.357 4.45632 5.92528 4.38339 5.35166C4.36301 5.19305 4.41759 5.03399 4.53106 4.92131L5.68968 3.76321C5.86011 3.59288 5.89036 3.32743 5.76261 3.12312L3.91787 0.258639C3.77654 0.0324101 3.48634 -0.0492381 3.24778 0.0701044L0.286317 1.46485C0.0934009 1.55984 -0.0200696 1.76481 0.00183387 1.97873C0.157006 3.45286 0.799678 7.07666 4.36089 10.6381C7.92209 14.1996 11.5454 14.842 13.0203 14.9972C13.2342 15.0191 13.4392 14.9056 13.5342 14.7127L14.9289 11.7512C15.0478 11.5132 14.9667 11.2238 14.7414 11.0822L11.8769 9.23795C11.6727 9.11007 11.4073 9.1401 11.2368 9.31036L10.0787 10.469C9.96605 10.5825 9.80699 10.637 9.64839 10.6167C9.07476 10.5437 7.64304 10.2205 6.21132 8.78873Z" fill="#B2B74A"/>
<path d="M11.8965 8.01722C11.6109 8.01722 11.3793 7.78564 11.3793 7.49997C11.3769 5.35849 9.64145 3.62309 7.49997 3.62066C7.2143 3.62066 6.98273 3.38909 6.98273 3.10342C6.98273 2.81776 7.2143 2.58618 7.49997 2.58618C10.2125 2.58917 12.4108 4.7874 12.4138 7.49997C12.4138 7.78564 12.1822 8.01722 11.8965 8.01722Z" fill="#B2B74A"/>
<path d="M14.4828 8.01724C14.1971 8.01724 13.9655 7.78566 13.9655 7.5C13.9615 3.93085 11.0691 1.03847 7.49997 1.03448C7.2143 1.03448 6.98273 0.802906 6.98273 0.517241C6.98273 0.231577 7.2143 0 7.49997 0C11.6402 0.004561 14.9954 3.35975 15 7.5C15 7.63718 14.9455 7.76874 14.8485 7.86574C14.7515 7.96275 14.6199 8.01724 14.4828 8.01724Z" fill="#B2B74A"/>
</g>
<defs>
<clipPath id="clip0_5_81">
<rect width="15" height="15" fill="white"/>
</clipPath>
</defs>
</svg>
