<svg width="177" height="177" viewBox="0 0 177 177" fill="none" xmlns="http://www.w3.org/2000/svg">
<path d="M99.5625 138.281C97.0335 138.285 94.5826 139.158 92.6208 140.754C90.9977 139.437 89.0345 138.606 86.9589 138.359C84.8832 138.112 82.7799 138.458 80.8927 139.356C79.0056 140.255 77.4117 141.671 76.2958 143.438C75.1799 145.206 74.5876 147.253 74.5876 149.344C74.5876 151.434 75.1799 153.482 76.2958 155.249C77.4117 157.017 79.0056 158.432 80.8927 159.331C82.7799 160.23 84.8832 160.576 86.9589 160.329C89.0345 160.081 90.9977 159.251 92.6208 157.934C93.9968 159.05 95.6208 159.82 97.3562 160.178C99.0916 160.536 100.888 160.472 102.593 159.991C104.299 159.51 105.864 158.627 107.156 157.415C108.449 156.204 109.432 154.699 110.022 153.028C110.613 151.357 110.793 149.569 110.548 147.814C110.303 146.059 109.64 144.389 108.615 142.944C107.59 141.498 106.232 140.32 104.657 139.509C103.082 138.698 101.334 138.277 99.5625 138.281ZM85.7344 154.875C84.6404 154.875 83.571 154.551 82.6614 153.943C81.7518 153.335 81.0429 152.471 80.6242 151.461C80.2056 150.45 80.096 149.338 80.3094 148.265C80.5229 147.192 81.0497 146.206 81.8232 145.433C82.5968 144.659 83.5824 144.132 84.6553 143.919C85.7283 143.705 86.8404 143.815 87.8511 144.234C88.8618 144.652 89.7257 145.361 90.3335 146.271C90.9413 147.18 91.2657 148.25 91.2657 149.344C91.2657 150.811 90.6829 152.218 89.6456 153.255C88.6083 154.292 87.2014 154.875 85.7344 154.875ZM99.5625 154.875C98.2406 154.878 96.9627 154.401 95.9672 153.531C96.5186 152.204 96.8025 150.781 96.8025 149.344C96.8025 147.907 96.5186 146.484 95.9672 145.157C96.9627 144.287 98.2406 143.809 99.5625 143.813C101.03 143.813 102.436 144.395 103.474 145.433C104.511 146.47 105.094 147.877 105.094 149.344C105.094 150.811 104.511 152.218 103.474 153.255C102.436 154.292 101.03 154.875 99.5625 154.875Z" fill="#B2B74A"/>
<path d="M168.703 38.7188H154.875V35.9532C154.881 30.7445 153.549 25.6216 151.005 21.0764C148.461 16.5311 144.791 12.7161 140.348 9.9975C135.905 7.27895 130.838 5.74815 125.633 5.55206C120.428 5.35597 115.26 6.50118 110.625 8.87775C105.99 6.50118 100.822 5.35597 95.617 5.55206C90.412 5.74815 85.3447 7.27895 80.9017 9.9975C76.4588 12.7161 72.7892 16.5311 70.2453 21.0764C67.7015 25.6216 66.3687 30.7445 66.375 35.9532V38.7188H41.4844C40.7509 38.7188 40.0474 39.0102 39.5288 39.5289C39.0101 40.0475 38.7188 40.751 38.7188 41.4845V88.5001H24.8906C22.6922 88.5067 20.5856 89.3829 19.0311 90.9374C17.4766 92.492 16.6003 94.5985 16.5938 96.797V99.5626H13.8281C11.6297 99.5692 9.52315 100.445 7.9686 102C6.41406 103.554 5.53782 105.661 5.53125 107.859V163.172C5.53782 165.37 6.41406 167.477 7.9686 169.032C9.52315 170.586 11.6297 171.462 13.8281 171.469H113.391C115.589 171.462 117.696 170.586 119.25 169.032C120.805 167.477 121.681 165.37 121.688 163.172V160.406H124.453C126.164 160.398 127.83 159.862 129.226 158.872C130.621 157.882 131.678 156.487 132.252 154.875H152.109C157.242 154.869 162.163 152.828 165.792 149.198C169.421 145.569 171.463 140.648 171.469 135.516V41.4845C171.469 40.751 171.177 40.0475 170.659 39.5289C170.14 39.0102 169.437 38.7188 168.703 38.7188ZM124.453 11.0626C131.051 11.0728 137.376 13.6985 142.042 18.3642C146.708 23.0299 149.334 29.355 149.344 35.9532V38.7188H127.219V35.9532C127.219 31.4701 126.227 27.0425 124.315 22.9878C122.402 18.9331 119.616 15.3518 116.156 12.5007C118.821 11.5561 121.626 11.0699 124.453 11.0626ZM124.453 63.6095C125.187 63.6095 125.89 63.3181 126.409 62.7994C126.927 62.2808 127.219 61.5773 127.219 60.8438V56.087C128.273 56.6958 129.097 57.6355 129.563 58.7605C130.029 59.8854 130.111 61.1326 129.796 62.3088C129.481 63.4849 128.786 64.5242 127.82 65.2654C126.854 66.0066 125.671 66.4084 124.453 66.4084C123.236 66.4084 122.052 66.0066 121.086 65.2654C120.12 64.5242 119.425 63.4849 119.11 62.3088C118.795 61.1326 118.877 59.8854 119.343 58.7605C119.809 57.6355 120.633 56.6958 121.688 56.087V60.8438C121.688 61.5773 121.979 62.2808 122.498 62.7994C123.016 63.3181 123.72 63.6095 124.453 63.6095ZM110.625 15.2663C114.026 17.5413 116.814 20.6187 118.743 24.2265C120.672 27.8344 121.684 31.8619 121.688 35.9532V38.7188H99.5625V35.9532C99.5664 31.8619 100.578 27.8344 102.507 24.2265C104.436 20.6187 107.224 17.5413 110.625 15.2663ZM71.9062 35.9532C71.9004 31.9696 72.8522 28.0429 74.6814 24.5041C76.5107 20.9653 79.1637 17.9179 82.417 15.619C85.6703 13.32 89.4285 11.8366 93.375 11.2939C97.3215 10.7513 101.341 11.1652 105.094 12.5007C101.634 15.3518 98.848 18.9331 96.9354 22.9878C95.0229 27.0425 94.0311 31.4701 94.0312 35.9532V38.7188H71.9062V35.9532ZM69.1406 63.6095C69.8741 63.6095 70.5776 63.3181 71.0962 62.7994C71.6149 62.2808 71.9062 61.5773 71.9062 60.8438V56.087C72.9607 56.6958 73.7849 57.6355 74.2508 58.7605C74.7168 59.8854 74.7985 61.1326 74.4834 62.3088C74.1683 63.4849 73.4738 64.5242 72.5078 65.2654C71.5418 66.0066 70.3582 66.4084 69.1406 66.4084C67.923 66.4084 66.7394 66.0066 65.7734 65.2654C64.8074 64.5242 64.113 63.4849 63.7978 62.3088C63.4827 61.1326 63.5645 59.8854 64.0304 58.7605C64.4964 57.6355 65.3205 56.6958 66.375 56.087V60.8438C66.375 61.5773 66.6664 62.2808 67.185 62.7994C67.7037 63.3181 68.4071 63.6095 69.1406 63.6095ZM116.156 163.172C116.156 163.905 115.865 164.609 115.346 165.128C114.828 165.646 114.124 165.938 113.391 165.938H13.8281C13.0946 165.938 12.3912 165.646 11.8725 165.128C11.3539 164.609 11.0625 163.905 11.0625 163.172V127.219H116.156V163.172ZM116.156 121.688H11.0625V116.156H116.156V121.688ZM116.156 110.625H11.0625V107.859C11.0625 107.126 11.3539 106.423 11.8725 105.904C12.3912 105.385 13.0946 105.094 13.8281 105.094H113.391C114.124 105.094 114.828 105.385 115.346 105.904C115.865 106.423 116.156 107.126 116.156 107.859V110.625ZM127.219 152.109C127.219 152.843 126.927 153.546 126.409 154.065C125.89 154.584 125.187 154.875 124.453 154.875H121.688V107.859C121.681 105.661 120.805 103.554 119.25 102C117.696 100.445 115.589 99.5692 113.391 99.5626H22.125V96.797C22.125 96.0635 22.4164 95.36 22.935 94.8414C23.4537 94.3227 24.1571 94.0313 24.8906 94.0313H124.453C125.187 94.0313 125.89 94.3227 126.409 94.8414C126.927 95.36 127.219 96.0635 127.219 96.797V152.109ZM135.516 149.344H132.75V96.797C132.743 94.5985 131.867 92.492 130.313 90.9374C128.758 89.3829 126.652 88.5067 124.453 88.5001H44.25V44.2501H66.375V50.1685C63.768 50.8417 61.4959 52.4425 59.9847 54.671C58.4736 56.8995 57.827 59.6026 58.1663 62.2737C58.5056 64.9448 59.8074 67.4004 61.8277 69.1803C63.848 70.9603 66.4481 71.9423 69.1406 71.9423C71.8332 71.9423 74.4333 70.9603 76.4536 69.1803C78.4739 67.4004 79.7757 64.9448 80.115 62.2737C80.4542 59.6026 79.8077 56.8995 78.2965 54.671C76.7853 52.4425 74.5133 50.8417 71.9062 50.1685V44.2501H121.688V50.1685C119.08 50.8417 116.808 52.4425 115.297 54.671C113.786 56.8995 113.14 59.6026 113.479 62.2737C113.818 64.9448 115.12 67.4004 117.14 69.1803C119.16 70.9603 121.761 71.9423 124.453 71.9423C127.146 71.9423 129.746 70.9603 131.766 69.1803C133.786 67.4004 135.088 64.9448 135.427 62.2737C135.767 59.6026 135.12 56.8995 133.609 54.671C132.098 52.4425 129.826 50.8417 127.219 50.1685V44.2501H149.344V135.516C149.344 139.183 147.887 142.7 145.294 145.294C142.7 147.887 139.183 149.344 135.516 149.344ZM165.938 135.516C165.938 139.183 164.481 142.7 161.887 145.294C159.294 147.887 155.777 149.344 152.109 149.344H149.04C150.887 147.546 152.356 145.396 153.358 143.021C154.361 140.646 154.876 138.094 154.875 135.516V44.2501H165.938V135.516Z" fill="#B2B74A"/>
<path d="M60.8438 146.578H24.8906C24.1571 146.578 23.4537 146.87 22.935 147.388C22.4164 147.907 22.125 148.61 22.125 149.344C22.125 150.077 22.4164 150.781 22.935 151.299C23.4537 151.818 24.1571 152.109 24.8906 152.109H60.8438C61.5772 152.109 62.2807 151.818 62.7993 151.299C63.318 150.781 63.6094 150.077 63.6094 149.344C63.6094 148.61 63.318 147.907 62.7993 147.388C62.2807 146.87 61.5772 146.578 60.8438 146.578Z" fill="#B2B74A"/>
</svg>
