<svg width="23" height="21" viewBox="0 0 23 21" fill="none" xmlns="http://www.w3.org/2000/svg">
<path d="M11.0086 5.37553C7.88538 5.37553 5.36618 7.63296 5.36618 10.4316C5.36618 13.2303 7.88538 15.4878 11.0086 15.4878C14.1318 15.4878 16.651 13.2303 16.651 10.4316C16.651 7.63296 14.1318 5.37553 11.0086 5.37553ZM11.0086 13.7188C8.99029 13.7188 7.34029 12.2446 7.34029 10.4316C7.34029 8.61866 8.98538 7.14451 11.0086 7.14451C13.0318 7.14451 14.6769 8.61866 14.6769 10.4316C14.6769 12.2446 13.0269 13.7188 11.0086 13.7188ZM18.1979 5.16871C18.1979 5.82437 17.6086 6.34803 16.8818 6.34803C16.1501 6.34803 15.5657 5.81997 15.5657 5.16871C15.5657 4.51744 16.155 3.98939 16.8818 3.98939C17.6086 3.98939 18.1979 4.51744 18.1979 5.16871ZM21.9349 6.36563C21.8515 4.78587 21.4488 3.38652 20.1573 2.23361C18.8706 1.08069 17.309 0.719853 15.5461 0.640645C13.7291 0.548236 8.28315 0.548236 6.46618 0.640645C4.70815 0.715453 3.14654 1.07629 1.85502 2.22921C0.563505 3.38212 0.165737 4.78147 0.0773437 6.36123C-0.0257812 7.98939 -0.0257812 12.8695 0.0773437 14.4977C0.160826 16.0774 0.563505 17.4768 1.85502 18.6297C3.14654 19.7826 4.70324 20.1434 6.46618 20.2226C8.28315 20.315 13.7291 20.315 15.5461 20.2226C17.309 20.1478 18.8706 19.787 20.1573 18.6297C21.4439 17.4768 21.8465 16.0774 21.9349 14.4977C22.0381 12.8695 22.0381 7.99379 21.9349 6.36563ZM19.5876 16.2446C19.2046 17.1071 18.4631 17.7716 17.4956 18.1192C16.047 18.6341 12.6095 18.5153 11.0086 18.5153C9.4077 18.5153 5.96529 18.6297 4.52154 18.1192C3.55904 17.776 2.81752 17.1115 2.42958 16.2446C1.85502 14.9465 1.98761 11.8662 1.98761 10.4316C1.98761 8.9971 1.85993 5.91238 2.42958 4.61865C2.81261 3.75616 3.55413 3.09169 4.52154 2.74406C5.9702 2.22921 9.4077 2.34802 11.0086 2.34802C12.6095 2.34802 16.0519 2.23361 17.4956 2.74406C18.4581 3.08729 19.1997 3.75176 19.5876 4.61865C20.1622 5.91678 20.0296 8.9971 20.0296 10.4316C20.0296 11.8662 20.1622 14.9509 19.5876 16.2446Z" fill="white"/>
</svg>
