<svg width="21" height="18" viewBox="0 0 21 18" fill="none" xmlns="http://www.w3.org/2000/svg">
<path d="M20.4234 3.09279C20.1835 2.05208 19.4767 1.23245 18.5792 0.954299C16.9525 0.448863 10.4296 0.448863 10.4296 0.448863C10.4296 0.448863 3.90679 0.448863 2.28006 0.954299C1.3826 1.2325 0.675774 2.05208 0.435875 3.09279C0 4.97913 0 8.9148 0 8.9148C0 8.9148 0 12.8505 0.435875 14.7368C0.675774 15.7775 1.3826 16.563 2.28006 16.8412C3.90679 17.3466 10.4296 17.3466 10.4296 17.3466C10.4296 17.3466 16.9525 17.3466 18.5792 16.8412C19.4767 16.563 20.1835 15.7775 20.4234 14.7368C20.8593 12.8505 20.8593 8.9148 20.8593 8.9148C20.8593 8.9148 20.8593 4.97913 20.4234 3.09279ZM8.29629 12.4881V5.3415L13.7481 8.91489L8.29629 12.4881Z" fill="white"/>
</svg>
