<svg width="201" height="201" viewBox="0 0 201 201" fill="none" xmlns="http://www.w3.org/2000/svg">
<path d="M46.9001 132.325C35.8149 132.325 26.8001 141.34 26.8001 152.425C26.8001 163.51 35.8149 172.525 46.9001 172.525C57.9854 172.525 67.0001 163.51 67.0001 152.425C67.0001 141.34 57.985 132.325 46.9001 132.325ZM46.9001 165.825C39.5098 165.825 33.5003 159.815 33.5003 152.425C33.5003 145.035 39.5102 139.025 46.9001 139.025C54.29 139.025 60.3 145.035 60.3 152.425C60.3 159.815 54.29 165.825 46.9001 165.825Z" fill="#B2B74A"/>
<path d="M160.8 132.325C149.715 132.325 140.7 141.34 140.7 152.425C140.7 163.51 149.715 172.525 160.8 172.525C171.885 172.525 180.9 163.51 180.9 152.425C180.9 141.34 171.885 132.325 160.8 132.325ZM160.8 165.825C153.41 165.825 147.4 159.815 147.4 152.425C147.4 145.035 153.41 139.025 160.8 139.025C168.19 139.025 174.2 145.035 174.2 152.425C174.2 159.815 168.19 165.825 160.8 165.825Z" fill="#B2B74A"/>
<path d="M200.467 113.763L170.317 66.8627C169.701 65.9044 168.639 65.325 167.5 65.325H130.65C128.797 65.325 127.3 66.8258 127.3 68.6748V152.425C127.3 154.277 128.797 155.775 130.65 155.775H144.05V149.074H134V72.0251H165.671L194.3 116.56V149.075H177.55V155.775H197.65C199.502 155.775 201 154.278 201 152.425V115.575C201 114.935 200.816 114.302 200.467 113.763Z" fill="#B2B74A"/>
<path d="M147.4 108.875V85.425H174.2V78.7249H144.05C142.198 78.7249 140.7 80.2257 140.7 82.0747V112.225C140.7 114.077 142.198 115.575 144.05 115.575H194.3V108.874H147.4V108.875Z" fill="#B2B74A"/>
<path d="M130.65 41.8752H3.34987C1.50083 41.8752 0 43.3761 0 45.2251V152.425C0 154.278 1.50083 155.775 3.34987 155.775H30.15V149.075H6.70013V48.575H127.3V149.075H63.6499V155.775H130.65C132.503 155.775 134 154.278 134 152.425V45.2251C134 43.3761 132.503 41.8752 130.65 41.8752Z" fill="#B2B74A"/>
<path d="M23.4499 135.675H3.34987V142.375H23.4499V135.675Z" fill="#B2B74A"/>
<path d="M127.3 135.675H70.35V142.375H127.3V135.675Z" fill="#B2B74A"/>
<path d="M197.65 135.675H184.25V142.375H197.65V135.675Z" fill="#B2B74A"/>
<path d="M130.65 55.2749H13.3999V61.975H130.65V55.2749Z" fill="#B2B74A"/>
<path d="M50.25 149.075H43.5499V155.775H50.25V149.075Z" fill="#B2B74A"/>
<path d="M164.15 149.075H157.45V155.775H164.15V149.075Z" fill="#B2B74A"/>
<path d="M60.3 28.4749H13.3999V35.175H60.3V28.4749Z" fill="#B2B74A"/>
<path d="M6.70013 28.4749H0V35.175H6.70013V28.4749Z" fill="#B2B74A"/>
</svg>
